# xmcd
#
# Track frame offsets:
#	150
#	15209
#	26090
#	39571
#	52254
#	65649
#	73088
#	90269
#	100275
#	112190
#	128016
#	138600
#
# Disc length: 2022 seconds
#
# Revision: 1
# Processed by: cddbd v1.5.1PL0 Copyright (c) Steve Scherf et al.
# Submitted via: audiograbber 1.83.01
#
DISCID=a907e40c
DTITLE=Milionário and José Rico - Vol. 04 As gargantas de ouro do Brasil
DYEAR=2001
DGENRE=Country
TTITLE0=Jogo do amor
TTITLE1=Lágrimas que choram
TTITLE2=Onde está meu bem
TTITLE3=Recordando a infância
TTITLE4=Vida cor de rosa
TTITLE5=Tortura do destino
TTITLE6=Mensagem do além
TTITLE7=Martírio de dor
TTITLE8=Amor com amor se paga
TTITLE9=Jamais quero te ver
TTITLE10=Tudo passa
TTITLE11=Opinião
EXTD=
EXTT0=
EXTT1=
EXTT2=
EXTT3=
EXTT4=
EXTT5=
EXTT6=
EXTT7=
EXTT8=
EXTT9=
EXTT10=
EXTT11=
PLAYORDER=
